<svg xmlns="http://www.w3.org/2000/svg" viewBox="0 0 120 120" fill="none">
  <!-- Calendar background -->
  <rect x="20" y="15" width="80" height="90" rx="8" fill="#fef3c7" stroke="#f59e0b" stroke-width="2"/>
  
  <!-- Calendar header -->
  <rect x="20" y="15" width="80" height="25" rx="8" fill="#f59e0b"/>
  
  <!-- Calendar header text -->
  <text x="60" y="32" text-anchor="middle" font-family="Arial, sans-serif" font-size="14" font-weight="bold" fill="white">EVENT</text>
  
  <!-- Calendar binding holes -->
  <circle cx="35" cy="27" r="2" fill="white"/>
  <circle cx="85" cy="27" r="2" fill="white"/>
  
  <!-- Calendar grid lines -->
  <line x1="20" y1="40" x2="100" y2="40" stroke="#f59e0b" stroke-width="1"/>
  <line x1="20" y1="55" x2="100" y2="55" stroke="#e5e7eb" stroke-width="1"/>
  <line x1="20" y1="70" x2="100" y2="70" stroke="#e5e7eb" stroke-width="1"/>
  <line x1="20" y1="85" x2="100" y2="85" stroke="#e5e7eb" stroke-width="1"/>
  
  <!-- Vertical grid lines -->
  <line x1="35" y1="40" x2="35" y2="105" stroke="#e5e7eb" stroke-width="1"/>
  <line x1="50" y1="40" x2="50" y2="105" stroke="#e5e7eb" stroke-width="1"/>
  <line x1="65" y1="40" x2="65" y2="105" stroke="#e5e7eb" stroke-width="1"/>
  <line x1="80" y1="40" x2="80" y2="105" stroke="#e5e7eb" stroke-width="1"/>
  
  <!-- Event dots representing scheduled events -->
  <circle cx="42" cy="47" r="3" fill="#10b981"/>
  <circle cx="87" cy="62" r="3" fill="#3b82f6"/>
  <circle cx="33" cy="77" r="3" fill="#f59e0b"/>
  <circle cx="72" cy="92" r="3" fill="#8b5cf6"/>
  
  <!-- Large question mark in the center -->
  <text x="60" y="95" text-anchor="middle" font-family="Arial, sans-serif" font-size="68" font-weight="bold" fill="#dc2626">?</text>
  
  <!-- Subtle shadow for depth -->
  <rect x="22" y="17" width="80" height="90" rx="8" fill="none" stroke="#d97706" stroke-width="1" opacity="0.3"/>
</svg>
